<mxfile host="app.diagrams.net" modified="2024-07-07T14:25:07.570Z" agent="Mozilla/5.0 (Windows NT 10.0; WOW64; x64) AppleWebKit/537.36 (KHTML, like Gecko) Chrome/113.0.5666.197 Safari/537.36" version="24.6.4" etag="GJWSV8PW0wMeeaal1ze0" type="github">
  <diagram name="第 1 页" id="vm2nKqBhhvxiN6wAekKc">
    <mxGraphModel>
      <root>
        <mxCell id="0" />
        <mxCell id="1" parent="0" />
      </root>
    </mxGraphModel>
  </diagram>
</mxfile>
